<svg id="Layer_1" data-name="Layer 1" xmlns="http://www.w3.org/2000/svg" viewBox="0 0 16 16"><title>icon__geyzer</title><path d="M14.07,3a1.08,1.08,0,0,0-1.12-.74l-1,.09H10.72l-2-.5L9,.5A1.39,1.39,0,0,0,8,.19,1.39,1.39,0,0,0,7,.5l.24,1.37-2.66.68v0H3.81L2.37,3.87l.81.59,2,2.32.23,1.54a.23.23,0,0,0,.21.21h0a.22.22,0,0,0-.21.2l-1,5.9a.43.43,0,0,0,.07.32c.06.09.16.27.25.27h6.5c.1,0,.19-.18.25-.27a.43.43,0,0,0,.07-.32l-1-5.9a.22.22,0,0,0-.21-.2h0a.23.23,0,0,0,.21-.21l.59-4.05,1.41-.56a.27.27,0,0,1,.22,0A.61.61,0,0,1,13,4l0,.22A2.39,2.39,0,0,1,13,5.31l-.68,2.24a.16.16,0,0,1-.25.08.4.4,0,0,0-.32-.08l-.08,0a.43.43,0,0,0-.33.32v0a.59.59,0,0,0,.48.72l.24,0a.87.87,0,0,0,.9-.46l.86-1.67A4.57,4.57,0,0,0,14.07,3Z"/></svg>